<svg width="50" height="50" viewBox="0 0 50 50" fill="none" xmlns="http://www.w3.org/2000/svg">
	<g clip-path="url(#clip0_167_2951)">
		<path d="M39.4997 27.4119H27.4163V39.4953C27.4163 40.1362 27.1617 40.7509 26.7085 41.2041C26.2553 41.6573 25.6406 41.9119 24.9997 41.9119C24.3587 41.9119 23.744 41.6573 23.2908 41.2041C22.8376 40.7509 22.583 40.1362 22.583 39.4953V27.4119H10.4997C9.85873 27.4119 9.24405 27.1573 8.79083 26.7041C8.33762 26.2509 8.08301 25.6362 8.08301 24.9953C8.08301 24.3543 8.33762 23.7397 8.79083 23.2864C9.24405 22.8332 9.85873 22.5786 10.4997 22.5786H22.583V10.4953C22.583 9.85434 22.8376 9.23965 23.2908 8.78644C23.744 8.33322 24.3587 8.07861 24.9997 8.07861C25.6406 8.07861 26.2553 8.33322 26.7085 8.78644C27.1617 9.23965 27.4163 9.85434 27.4163 10.4953V22.5786H39.4997C40.1406 22.5786 40.7553 22.8332 41.2085 23.2864C41.6617 23.7397 41.9163 24.3543 41.9163 24.9953C41.9163 25.6362 41.6617 26.2509 41.2085 26.7041C40.7553 27.1573 40.1406 27.4119 39.4997 27.4119Z" fill="url(#paint0_linear_167_2951)" />
	</g>
	<defs>
		<linearGradient id="paint0_linear_167_2951" x1="11.1838" y1="44.4279" x2="33.4537" y2="11.1996" gradientUnits="userSpaceOnUse">
			<stop offset="0.28125" stop-color="#14B8A6" />
			<stop offset="0.4777" stop-color="#1DCEBB" />
			<stop offset="0.6028" stop-color="#26E0CC" />
			<stop offset="0.9699" stop-color="#13EDD5" />
		</linearGradient>
		<clipPath id="clip0_167_2951">
			<rect width="50" height="50" fill="white" />
		</clipPath>
	</defs>
</svg>
