<svg width="149" height="91" viewBox="0 0 149 91" fill="none" xmlns="http://www.w3.org/2000/svg">
	<g clip-path="url(#clip0_99_122)">
		<path d="M146.25 90.9099C147.708 90.9099 148.89 89.7279 148.89 88.2699C148.89 86.8119 147.708 85.6299 146.25 85.6299C144.792 85.6299 143.61 86.8119 143.61 88.2699C143.61 89.7279 144.792 90.9099 146.25 90.9099Z" fill="#3B82F6" />
		<path d="M122.31 90.9099C123.768 90.9099 124.95 89.7279 124.95 88.2699C124.95 86.8119 123.768 85.6299 122.31 85.6299C120.852 85.6299 119.67 86.8119 119.67 88.2699C119.67 89.7279 120.852 90.9099 122.31 90.9099Z" fill="#3B82F6" />
		<path d="M98.38 90.9101C98.9045 90.9121 99.4179 90.7584 99.855 90.4684C100.292 90.1784 100.633 89.7652 100.835 89.2811C101.038 88.7971 101.091 88.264 100.99 87.7493C100.889 87.2346 100.638 86.7615 100.267 86.3899C99.8972 86.0182 99.4251 85.7648 98.9108 85.6618C98.3964 85.5587 97.8631 85.6106 97.3783 85.8109C96.8935 86.0111 96.479 86.3508 96.1874 86.7868C95.8957 87.2228 95.74 87.7355 95.74 88.2601C95.74 88.9612 96.0179 89.6337 96.5127 90.1304C97.0075 90.6271 97.6789 90.9075 98.38 90.9101V90.9101Z" fill="#3B82F6" />
		<path d="M74.4501 90.9101C74.9742 90.9101 75.4866 90.7547 75.9224 90.4635C76.3582 90.1723 76.6977 89.7585 76.8983 89.2742C77.0989 88.79 77.1513 88.2572 77.0491 87.7431C76.9468 87.2291 76.6945 86.7569 76.3239 86.3863C75.9532 86.0157 75.4811 85.7633 74.967 85.661C74.453 85.5588 73.9201 85.6113 73.4359 85.8118C72.9517 86.0124 72.5379 86.3521 72.2467 86.7879C71.9555 87.2236 71.8 87.736 71.8 88.2601C71.8 88.6081 71.8685 88.9527 72.0017 89.2742C72.1349 89.5958 72.3301 89.8878 72.5762 90.1339C72.8222 90.38 73.1144 90.5753 73.4359 90.7084C73.7574 90.8416 74.1021 90.9101 74.4501 90.9101V90.9101Z" fill="#3B82F6" />
		<path d="M50.51 90.9099C51.968 90.9099 53.15 89.7279 53.15 88.2699C53.15 86.8119 51.968 85.6299 50.51 85.6299C49.052 85.6299 47.87 86.8119 47.87 88.2699C47.87 89.7279 49.052 90.9099 50.51 90.9099Z" fill="#3B82F6" />
		<path d="M27.5903 90.5955C28.9388 90.0411 29.5826 88.4984 29.0281 87.1499C28.4737 85.8014 26.9311 85.1577 25.5826 85.7122C24.2341 86.2666 23.5903 87.8092 24.1447 89.1577C24.6992 90.5062 26.2418 91.1499 27.5903 90.5955Z" fill="#3B82F6" />
		<path d="M2.65004 85.6599C2.12508 85.658 1.61141 85.812 1.17409 86.1024C0.736773 86.3928 0.395556 86.8066 0.193746 87.2912C-0.008065 87.7758 -0.0613845 88.3095 0.0405473 88.8245C0.142479 89.3395 0.395045 89.8125 0.766255 90.1837C1.13747 90.5549 1.61053 90.8075 2.12551 90.9094C2.64049 91.0114 3.1742 90.9581 3.65883 90.7562C4.14346 90.5544 4.55725 90.2133 4.84768 89.776C5.1381 89.3386 5.29204 88.8249 5.29006 88.2999C5.28742 87.6006 5.00846 86.9306 4.51394 86.4361C4.01941 85.9415 3.34941 85.6626 2.65004 85.6599V85.6599Z" fill="#3B82F6" />
		<path d="M146.25 69.5C147.708 69.5 148.89 68.318 148.89 66.86C148.89 65.4019 147.708 64.22 146.25 64.22C144.792 64.22 143.61 65.4019 143.61 66.86C143.61 68.318 144.792 69.5 146.25 69.5Z" fill="#3B82F6" />
		<path d="M122.31 69.5C123.768 69.5 124.95 68.318 124.95 66.86C124.95 65.4019 123.768 64.22 122.31 64.22C120.852 64.22 119.67 65.4019 119.67 66.86C119.67 68.318 120.852 69.5 122.31 69.5Z" fill="#3B82F6" />
		<path d="M98.38 69.5C98.905 69.5019 99.4188 69.3479 99.8561 69.0575C100.293 68.7671 100.635 68.3533 100.836 67.8687C101.038 67.384 101.092 66.8504 100.99 66.3354C100.888 65.8204 100.635 65.3473 100.264 64.9761C99.8927 64.6049 99.4195 64.3523 98.9046 64.2504C98.3896 64.1485 97.856 64.2018 97.3714 64.4036C96.8867 64.6054 96.4729 64.9466 96.1825 65.3839C95.8921 65.8213 95.738 66.335 95.74 66.8599C95.7426 67.5593 96.0217 68.2292 96.5163 68.7238C97.0108 69.2183 97.6807 69.4973 98.38 69.5V69.5Z" fill="#3B82F6" />
		<path d="M74.4501 69.5C74.9746 69.5 75.4874 69.3443 75.9234 69.0526C76.3594 68.761 76.699 68.3465 76.8993 67.8617C77.0996 67.3769 77.1514 66.8436 77.0484 66.3292C76.9453 65.8149 76.6919 65.3428 76.3203 64.9726C75.9487 64.6023 75.4755 64.3508 74.9608 64.2497C74.4461 64.1485 73.913 64.2025 73.429 64.4046C72.9449 64.6067 72.5318 64.9479 72.2418 65.385C71.9519 65.8221 71.7981 66.3354 71.8001 66.8599C71.8001 67.2075 71.8687 67.5516 72.002 67.8725C72.1353 68.1935 72.3306 68.485 72.5768 68.7302C72.823 68.9755 73.1152 69.1698 73.4367 69.3018C73.7581 69.4339 74.1026 69.5013 74.4501 69.5V69.5Z" fill="#3B82F6" />
		<path d="M50.51 69.5C51.968 69.5 53.15 68.318 53.15 66.86C53.15 65.4019 51.968 64.22 50.51 64.22C49.052 64.22 47.87 65.4019 47.87 66.86C47.87 68.318 49.052 69.5 50.51 69.5Z" fill="#3B82F6" />
		<path d="M27.5927 69.1932C28.9412 68.6388 29.5849 67.0961 29.0305 65.7476C28.476 64.3991 26.9334 63.7554 25.5849 64.3098C24.2364 64.8643 23.5927 66.4069 24.1471 67.7554C24.7015 69.1039 26.2442 69.7476 27.5927 69.1932Z" fill="#3B82F6" />
		<path d="M2.65004 69.5C3.17459 69.5 3.68731 69.3443 4.12331 69.0526C4.55931 68.761 4.89899 68.3465 5.09926 67.8617C5.29954 67.3769 5.3515 66.8436 5.24843 66.3292C5.14537 65.8149 4.89189 65.3428 4.52028 64.9726C4.14867 64.6023 3.67561 64.3508 3.16091 64.2497C2.6462 64.1485 2.11309 64.2025 1.62905 64.4046C1.145 64.6067 0.731771 64.9479 0.441791 65.385C0.151812 65.8221 -0.00196055 66.3354 1.88721e-05 66.8599C1.63788e-05 67.2075 0.0686259 67.5516 0.201923 67.8725C0.33522 68.1935 0.530667 68.485 0.776874 68.7302C1.02308 68.9755 1.31528 69.1698 1.63674 69.3018C1.95819 69.4339 2.30251 69.5013 2.65004 69.5Z" fill="#3B82F6" />
		<path d="M146.25 48.0901C147.708 48.0901 148.89 46.9081 148.89 45.4501C148.89 43.992 147.708 42.8101 146.25 42.8101C144.792 42.8101 143.61 43.992 143.61 45.4501C143.61 46.9081 144.792 48.0901 146.25 48.0901Z" fill="#3B82F6" />
		<path d="M122.31 48.0901C123.768 48.0901 124.95 46.9081 124.95 45.4501C124.95 43.992 123.768 42.8101 122.31 42.8101C120.852 42.8101 119.67 43.992 119.67 45.4501C119.67 46.9081 120.852 48.0901 122.31 48.0901Z" fill="#3B82F6" />
		<path d="M98.38 48.1001C98.9045 48.102 99.4179 47.9483 99.855 47.6583C100.292 47.3684 100.633 46.9551 100.835 46.4711C101.038 45.987 101.091 45.4539 100.99 44.9392C100.889 44.4245 100.638 43.9514 100.267 43.5798C99.8972 43.2082 99.4251 42.9548 98.9108 42.8517C98.3964 42.7486 97.8631 42.8005 97.3783 43.0008C96.8935 43.2011 96.479 43.5408 96.1874 43.9768C95.8957 44.4128 95.74 44.9255 95.74 45.45C95.74 46.1511 96.0179 46.8236 96.5127 47.3203C97.0075 47.817 97.6789 48.0974 98.38 48.1001V48.1001Z" fill="#3B82F6" />
		<path d="M74.4501 48.1C74.9742 48.1 75.4866 47.9446 75.9224 47.6535C76.3582 47.3623 76.6977 46.9484 76.8983 46.4642C77.0989 45.98 77.1513 45.4471 77.0491 44.9331C76.9468 44.419 76.6945 43.9468 76.3239 43.5762C75.9532 43.2056 75.4811 42.9532 74.967 42.851C74.453 42.7487 73.9201 42.8012 73.4359 43.0018C72.9517 43.2024 72.5379 43.542 72.2467 43.9778C71.9555 44.4136 71.8 44.9259 71.8 45.45C71.8 45.798 71.8685 46.1427 72.0017 46.4642C72.1349 46.7857 72.3301 47.0778 72.5762 47.3239C72.8222 47.5699 73.1144 47.7652 73.4359 47.8983C73.7574 48.0315 74.1021 48.1 74.4501 48.1V48.1Z" fill="#3B82F6" />
		<path d="M50.51 48.0901C51.968 48.0901 53.15 46.9081 53.15 45.4501C53.15 43.992 51.968 42.8101 50.51 42.8101C49.052 42.8101 47.87 43.992 47.87 45.4501C47.87 46.9081 49.052 48.0901 50.51 48.0901Z" fill="#3B82F6" />
		<path d="M27.5912 47.7915C28.9397 47.2371 29.5834 45.6944 29.029 44.3459C28.4745 42.9974 26.9319 42.3538 25.5834 42.9082C24.2349 43.4626 23.5912 45.0052 24.1456 46.3537C24.7 47.7022 26.2427 48.346 27.5912 47.7915Z" fill="#3B82F6" />
		<path d="M2.65002 48.1C3.17414 48.1 3.68652 47.9446 4.12231 47.6535C4.5581 47.3623 4.89769 46.9484 5.09827 46.4642C5.29884 45.98 5.3514 45.4471 5.24915 44.9331C5.14689 44.419 4.89453 43.9468 4.52393 43.5762C4.15332 43.2056 3.68104 42.9532 3.16699 42.851C2.65294 42.7487 2.12021 42.8012 1.63599 43.0018C1.15176 43.2024 0.737841 43.542 0.446655 43.9778C0.15547 44.4136 0 44.9259 0 45.45C0 46.1528 0.279274 46.8269 0.776245 47.3239C1.27322 47.8208 1.9472 48.1 2.65002 48.1V48.1Z" fill="#3B82F6" />
		<path d="M146.25 26.6899C147.708 26.6899 148.89 25.5079 148.89 24.0499C148.89 22.5919 147.708 21.4099 146.25 21.4099C144.792 21.4099 143.61 22.5919 143.61 24.0499C143.61 25.5079 144.792 26.6899 146.25 26.6899Z" fill="#3B82F6" />
		<path d="M122.31 26.6899C123.768 26.6899 124.95 25.5079 124.95 24.0499C124.95 22.5919 123.768 21.4099 122.31 21.4099C120.852 21.4099 119.67 22.5919 119.67 24.0499C119.67 25.5079 120.852 26.6899 122.31 26.6899Z" fill="#3B82F6" />
		<path d="M98.38 26.6601C98.905 26.6621 99.4188 26.5081 99.8561 26.2177C100.293 25.9272 100.635 25.5135 100.836 25.0288C101.038 24.5442 101.092 24.0105 100.99 23.4956C100.888 22.9806 100.635 22.5075 100.264 22.1363C99.8927 21.7651 99.4195 21.5125 98.9046 21.4105C98.3896 21.3086 97.856 21.3619 97.3714 21.5637C96.8867 21.7656 96.4729 22.1068 96.1825 22.5441C95.8921 22.9814 95.738 23.4951 95.74 24.0201C95.7426 24.7195 96.0217 25.3895 96.5163 25.884C97.0108 26.3785 97.6807 26.6575 98.38 26.6601V26.6601Z" fill="#3B82F6" />
		<path d="M74.4501 26.6601C74.9746 26.6601 75.4874 26.5044 75.9234 26.2128C76.3594 25.9212 76.699 25.5067 76.8993 25.0219C77.0996 24.5371 77.1514 24.0038 77.0484 23.4895C76.9453 22.9751 76.6919 22.503 76.3203 22.1328C75.9487 21.7626 75.4755 21.5109 74.9608 21.4098C74.4461 21.3087 73.913 21.3626 73.429 21.5647C72.9449 21.7668 72.5318 22.108 72.2418 22.5451C71.9519 22.9822 71.7981 23.4956 71.8001 24.0201C71.8001 24.3676 71.8687 24.7118 72.002 25.0327C72.1353 25.3537 72.3306 25.6451 72.5768 25.8904C72.823 26.1357 73.1152 26.33 73.4367 26.4621C73.7581 26.5941 74.1026 26.6614 74.4501 26.6601V26.6601Z" fill="#3B82F6" />
		<path d="M50.51 26.6899C51.968 26.6899 53.15 25.5079 53.15 24.0499C53.15 22.5919 51.968 21.4099 50.51 21.4099C49.052 21.4099 47.87 22.5919 47.87 24.0499C47.87 25.5079 49.052 26.6899 50.51 26.6899Z" fill="#3B82F6" />
		<path d="M27.5937 26.3892C28.9422 25.8348 29.5859 24.2922 29.0315 22.9437C28.477 21.5952 26.9344 20.9514 25.5859 21.5059C24.2374 22.0603 23.5936 23.603 24.1481 24.9515C24.7025 26.3 26.2452 26.9437 27.5937 26.3892Z" fill="#3B82F6" />
		<path d="M2.65004 26.6601C3.17459 26.6601 3.68731 26.5044 4.12331 26.2128C4.55931 25.9212 4.89899 25.5067 5.09926 25.0219C5.29954 24.5371 5.3515 24.0038 5.24843 23.4895C5.14537 22.9751 4.89189 22.503 4.52028 22.1328C4.14867 21.7626 3.67561 21.5109 3.16091 21.4098C2.6462 21.3087 2.11309 21.3626 1.62905 21.5647C1.145 21.7668 0.731771 22.108 0.441791 22.5451C0.151812 22.9822 -0.00196055 23.4956 1.88721e-05 24.0201C1.63788e-05 24.3676 0.0686259 24.7118 0.201923 25.0327C0.33522 25.3537 0.530667 25.6451 0.776874 25.8904C1.02308 26.1357 1.31528 26.33 1.63674 26.4621C1.95819 26.5941 2.30251 26.6614 2.65004 26.6601V26.6601Z" fill="#3B82F6" />
		<path d="M146.25 5.28C147.708 5.28 148.89 4.09803 148.89 2.64C148.89 1.18197 147.708 0 146.25 0C144.792 0 143.61 1.18197 143.61 2.64C143.61 4.09803 144.792 5.28 146.25 5.28Z" fill="#3B82F6" />
		<path d="M122.31 5.28C123.768 5.28 124.95 4.09803 124.95 2.64C124.95 1.18197 123.768 0 122.31 0C120.852 0 119.67 1.18197 119.67 2.64C119.67 4.09803 120.852 5.28 122.31 5.28Z" fill="#3B82F6" />
		<path d="M98.38 5.29C98.9045 5.29198 99.4179 5.13827 99.855 4.84829C100.292 4.55831 100.633 4.14508 100.835 3.66103C101.038 3.17698 101.091 2.64388 100.99 2.12917C100.889 1.61446 100.638 1.14134 100.267 0.769734C99.8972 0.398123 99.4251 0.144709 98.9108 0.0416453C98.3964 -0.0614187 97.8631 -0.00952083 97.3783 0.190754C96.8935 0.391029 96.479 0.730702 96.1874 1.16671C95.8957 1.60271 95.74 2.11543 95.74 2.63997C95.74 3.34107 96.0179 4.01359 96.5127 4.51027C97.0075 5.00696 97.6789 5.28735 98.38 5.29V5.29Z" fill="#3B82F6" />
		<path d="M74.4501 5.28999C74.9742 5.28999 75.4866 5.13458 75.9224 4.8434C76.3582 4.55221 76.6977 4.13835 76.8983 3.65413C77.0989 3.1699 77.1513 2.63705 77.0491 2.123C76.9468 1.60895 76.6945 1.13673 76.3239 0.766126C75.9532 0.395516 75.4811 0.143157 74.967 0.0409059C74.453 -0.061345 73.9201 -0.00884847 73.4359 0.191724C72.9517 0.392296 72.5379 0.731947 72.2467 1.16774C71.9555 1.60353 71.8 2.11585 71.8 2.63997C71.8 2.98797 71.8685 3.33261 72.0017 3.65413C72.1349 3.97564 72.3301 4.26773 72.5762 4.51381C72.8222 4.75988 73.1144 4.95509 73.4359 5.08827C73.7574 5.22144 74.1021 5.28999 74.4501 5.28999V5.28999Z" fill="#3B82F6" />
		<path d="M50.51 5.28C51.968 5.28 53.15 4.09803 53.15 2.64C53.15 1.18197 51.968 0 50.51 0C49.052 0 47.87 1.18197 47.87 2.64C47.87 4.09803 49.052 5.28 50.51 5.28Z" fill="#3B82F6" />
		<path d="M27.5922 4.97757C28.9407 4.42314 29.5844 2.88048 29.03 1.53198C28.4755 0.183476 26.9329 -0.460193 25.5844 0.0942435C24.2359 0.64868 23.5921 2.19128 24.1466 3.53978C24.701 4.88828 26.2437 5.53201 27.5922 4.97757Z" fill="#3B82F6" />
		<path d="M2.65002 5.28999C3.17414 5.28999 3.68652 5.13458 4.12231 4.8434C4.5581 4.55221 4.89769 4.13835 5.09827 3.65413C5.29884 3.1699 5.3514 2.63705 5.24915 2.123C5.14689 1.60895 4.89453 1.13673 4.52393 0.766126C4.15332 0.395516 3.68104 0.143157 3.16699 0.0409059C2.65294 -0.061345 2.12021 -0.00884847 1.63599 0.191724C1.15176 0.392296 0.737841 0.731947 0.446655 1.16774C0.15547 1.60353 0 2.11585 0 2.63997C0 3.34279 0.279274 4.01683 0.776245 4.51381C1.27322 5.01078 1.9472 5.28999 2.65002 5.28999V5.28999Z" fill="#3B82F6" />
	</g>
	<defs>
		<clipPath id="clip0_99_122">
			<rect width="148.89" height="90.91" fill="white" />
		</clipPath>
	</defs>
</svg>
