<svg width="45" height="45" viewBox="0 0 45 45" fill="none" xmlns="http://www.w3.org/2000/svg">
	<path d="M20.3906 37.9688C20.3906 38.5282 20.1684 39.0647 19.7728 39.4603C19.3772 39.8559 18.8407 40.0781 18.2813 40.0781H8.4375C7.5051 40.0781 6.61089 39.7077 5.95158 39.0484C5.29227 38.3891 4.92188 37.4949 4.92188 36.5625V8.4375C4.92188 7.5051 5.29227 6.61089 5.95158 5.95158C6.61089 5.29227 7.5051 4.92188 8.4375 4.92188H18.2813C18.8407 4.92188 19.3772 5.14411 19.7728 5.5397C20.1684 5.93528 20.3906 6.47181 20.3906 7.03125C20.3906 7.59069 20.1684 8.12722 19.7728 8.5228C19.3772 8.91839 18.8407 9.14062 18.2813 9.14062H9.14063V35.8594H18.2813C18.8407 35.8594 19.3772 36.0816 19.7728 36.4772C20.1684 36.8728 20.3906 37.4093 20.3906 37.9688ZM39.4611 21.0076L32.4299 13.9764C32.0336 13.5801 31.4962 13.3575 30.9357 13.3575C30.3753 13.3575 29.8379 13.5801 29.4416 13.9764C29.0453 14.3726 28.8227 14.9101 28.8227 15.4705C28.8227 16.0309 29.0453 16.5684 29.4416 16.9646L32.8711 20.3906H18.2813C17.7218 20.3906 17.1853 20.6129 16.7897 21.0084C16.3941 21.404 16.1719 21.9406 16.1719 22.5C16.1719 23.0594 16.3941 23.596 16.7897 23.9916C17.1853 24.3871 17.7218 24.6094 18.2813 24.6094H32.8711L29.4398 28.0389C29.0436 28.4351 28.821 28.9726 28.821 29.533C28.821 30.0934 29.0436 30.6309 29.4398 31.0271C29.8361 31.4234 30.3736 31.646 30.934 31.646C31.4944 31.646 32.0319 31.4234 32.4281 31.0271L39.4594 23.9959C39.6561 23.8 39.8123 23.5673 39.9189 23.3109C40.0255 23.0546 40.0805 22.7797 40.0807 22.5021C40.0808 22.2245 40.0262 21.9496 39.9199 21.6931C39.8136 21.4367 39.6577 21.2037 39.4611 21.0076Z" fill="#E11D48" />
</svg>
