<svg width="20" height="21" viewBox="0 0 20 21" fill="none" xmlns="http://www.w3.org/2000/svg">
	<g clip-path="url(#clip0_31_127)">
		<path d="M19.6875 10.6899C19.6875 5.33838 15.3516 1.00244 10 1.00244C4.64844 1.00244 0.3125 5.33838 0.3125 10.6899C0.3125 15.5251 3.85508 19.5329 8.48633 20.2603V13.4903H6.02539V10.6899H8.48633V8.55557C8.48633 6.12783 9.93164 4.78682 12.1453 4.78682C13.2055 4.78682 14.3141 4.97588 14.3141 4.97588V7.35869H13.0922C11.8891 7.35869 11.5137 8.10557 11.5137 8.87158V10.6899H14.2004L13.7707 13.4903H11.5137V20.2603C16.1449 19.5329 19.6875 15.5251 19.6875 10.6899Z" fill="#14B8A6" />
	</g>
	<defs>
		<clipPath id="clip0_31_127">
			<rect width="20" height="20" fill="white" transform="translate(0 0.689941)" />
		</clipPath>
	</defs>
</svg>
