<svg width="50" height="50" viewBox="0 0 50 50" fill="none" xmlns="http://www.w3.org/2000/svg">
	<path d="M20.6474 41.0323V30.1629H29.343V41.0323C29.343 42.228 30.3212 43.2062 31.5169 43.2062H38.0385C39.2342 43.2062 40.2124 42.228 40.2124 41.0323V25.8151H43.9081C44.9081 25.8151 45.3863 24.5759 44.6254 23.9238L26.4517 7.55434C25.6256 6.81522 24.3647 6.81522 23.5387 7.55434L5.36489 23.9238C4.62577 24.5759 5.08229 25.8151 6.08228 25.8151H9.7779V41.0323C9.7779 42.228 10.7562 43.2062 11.9518 43.2062H18.4735C19.6691 43.2062 20.6474 42.228 20.6474 41.0323Z" fill="url(#paint0_linear_167_2779)" />
	<defs>
		<linearGradient id="paint0_linear_167_2779" x1="8.66596" y1="45.8987" x2="31.5173" y2="8.23015" gradientUnits="userSpaceOnUse">
			<stop offset="0.28125" stop-color="#14B8A6" />
			<stop offset="0.4777" stop-color="#1DCEBB" />
			<stop offset="0.6028" stop-color="#26E0CC" />
			<stop offset="0.9699" stop-color="#13EDD5" />
		</linearGradient>
	</defs>
</svg>
