<svg width="20" height="21" viewBox="0 0 20 21" fill="none" xmlns="http://www.w3.org/2000/svg">
	<path d="M10.0039 6.19775C7.51953 6.19775 5.51562 8.20166 5.51562 10.686C5.51562 13.1704 7.51953 15.1743 10.0039 15.1743C12.4883 15.1743 14.4922 13.1704 14.4922 10.686C14.4922 8.20166 12.4883 6.19775 10.0039 6.19775ZM10.0039 13.604C8.39844 13.604 7.08594 12.2954 7.08594 10.686C7.08594 9.07666 8.39453 7.76807 10.0039 7.76807C11.6133 7.76807 12.9219 9.07666 12.9219 10.686C12.9219 12.2954 11.6094 13.604 10.0039 13.604ZM15.7227 6.01416C15.7227 6.59619 15.2539 7.06104 14.6758 7.06104C14.0938 7.06104 13.6289 6.59229 13.6289 6.01416C13.6289 5.43604 14.0977 4.96728 14.6758 4.96728C15.2539 4.96728 15.7227 5.43604 15.7227 6.01416ZM18.6953 7.07666C18.6289 5.67432 18.3086 4.43213 17.2812 3.40869C16.2578 2.38525 15.0156 2.06494 13.6133 1.99463C12.168 1.9126 7.83594 1.9126 6.39062 1.99463C4.99219 2.06104 3.75 2.38135 2.72266 3.40479C1.69531 4.42822 1.37891 5.67041 1.30859 7.07275C1.22656 8.51807 1.22656 12.8501 1.30859 14.2954C1.375 15.6978 1.69531 16.9399 2.72266 17.9634C3.75 18.9868 4.98828 19.3071 6.39062 19.3774C7.83594 19.4595 12.168 19.4595 13.6133 19.3774C15.0156 19.311 16.2578 18.9907 17.2812 17.9634C18.3047 16.9399 18.625 15.6978 18.6953 14.2954C18.7773 12.8501 18.7773 8.52197 18.6953 7.07666ZM16.8281 15.8462C16.5234 16.6118 15.9336 17.2017 15.1641 17.5103C14.0117 17.9673 11.2773 17.8618 10.0039 17.8618C8.73047 17.8618 5.99219 17.9634 4.84375 17.5103C4.07812 17.2056 3.48828 16.6157 3.17969 15.8462C2.72266 14.6938 2.82813 11.9595 2.82813 10.686C2.82813 9.4126 2.72656 6.67432 3.17969 5.52588C3.48438 4.76025 4.07422 4.17041 4.84375 3.86182C5.99609 3.40479 8.73047 3.51025 10.0039 3.51025C11.2773 3.51025 14.0156 3.40869 15.1641 3.86182C15.9297 4.1665 16.5195 4.75635 16.8281 5.52588C17.2852 6.67822 17.1797 9.4126 17.1797 10.686C17.1797 11.9595 17.2852 14.6978 16.8281 15.8462Z" fill="#14B8A6" />
</svg>
