<svg width="50" height="50" viewBox="0 0 50 50" fill="none" xmlns="http://www.w3.org/2000/svg">
	<path fill-rule="evenodd" clip-rule="evenodd" d="M18 16.25C18 14.3935 18.7375 12.613 20.0503 11.3003C21.363 9.9875 23.1435 9.25 25 9.25C26.8565 9.25 28.637 9.9875 29.9497 11.3003C31.2625 12.613 32 14.3935 32 16.25C32 18.1065 31.2625 19.887 29.9497 21.1997C28.637 22.5125 26.8565 23.25 25 23.25C23.1435 23.25 21.363 22.5125 20.0503 21.1997C18.7375 19.887 18 18.1065 18 16.25ZM18 26.75C15.6794 26.75 13.4538 27.6719 11.8128 29.3128C10.1719 30.9538 9.25 33.1794 9.25 35.5C9.25 36.8924 9.80312 38.2277 10.7877 39.2123C11.7723 40.1969 13.1076 40.75 14.5 40.75H35.5C36.8924 40.75 38.2277 40.1969 39.2123 39.2123C40.1969 38.2277 40.75 36.8924 40.75 35.5C40.75 33.1794 39.8281 30.9538 38.1872 29.3128C36.5462 27.6719 34.3206 26.75 32 26.75H18Z" fill="url(#paint0_linear_167_2948)" />
	<defs>
		<linearGradient id="paint0_linear_167_2948" x1="12.1369" y1="43.0925" x2="32.871" y2="12.1557" gradientUnits="userSpaceOnUse">
			<stop offset="0.28125" stop-color="#14B8A6" />
			<stop offset="0.4777" stop-color="#1DCEBB" />
			<stop offset="0.6028" stop-color="#26E0CC" />
			<stop offset="0.9699" stop-color="#13EDD5" />
		</linearGradient>
	</defs>
</svg>
