<svg width="21" height="20" viewBox="0 0 21 20" fill="none" xmlns="http://www.w3.org/2000/svg">
	<g clip-path="url(#clip0_31_956)">
		<path d="M15.1775 12.9299C16.3879 11.2782 16.93 9.23049 16.6954 7.19632C16.4608 5.16214 15.4668 3.29155 13.9122 1.95879C12.3576 0.626033 10.3572 -0.0706141 8.31104 0.00822737C6.2649 0.0870688 4.32398 0.935584 2.87659 2.38402C1.42919 3.83245 0.582064 5.77398 0.504687 7.82017C0.427309 9.86637 1.12539 11.8663 2.45926 13.4199C3.79313 14.9735 5.66443 15.9662 7.69877 16.1994C9.73312 16.4325 11.7805 15.8889 13.4312 14.6774H13.43C13.4675 14.7274 13.5075 14.7749 13.5525 14.8211L18.365 19.6336C18.5994 19.8682 18.9173 20 19.2489 20.0001C19.5805 20.0003 19.8986 19.8686 20.1331 19.6343C20.3677 19.3999 20.4995 19.0819 20.4996 18.7503C20.4997 18.4187 20.3681 18.1007 20.1337 17.8661L15.3212 13.0536C15.2766 13.0084 15.2285 12.9679 15.1775 12.9299ZM15.5 8.12488C15.5 9.02772 15.3222 9.92172 14.9767 10.7558C14.6312 11.5899 14.1248 12.3478 13.4864 12.9862C12.848 13.6246 12.0901 14.1311 11.2559 14.4766C10.4218 14.8221 9.52784 14.9999 8.625 14.9999C7.72216 14.9999 6.82817 14.8221 5.99405 14.4766C5.15994 14.1311 4.40204 13.6246 3.76364 12.9862C3.12524 12.3478 2.61883 11.5899 2.27333 10.7558C1.92783 9.92172 1.75 9.02772 1.75 8.12488C1.75 6.30152 2.47433 4.55283 3.76364 3.26352C5.05295 1.97421 6.80164 1.24988 8.625 1.24988C10.4484 1.24988 12.197 1.97421 13.4864 3.26352C14.7757 4.55283 15.5 6.30152 15.5 8.12488Z" fill="#14B8A6" />
	</g>
	<defs>
		<clipPath id="clip0_31_956">
			<rect width="20" height="20" fill="white" transform="translate(0.5)" />
		</clipPath>
	</defs>
</svg>
