<svg width="20" height="21" viewBox="0 0 20 21" fill="none" xmlns="http://www.w3.org/2000/svg">
	<path d="M19.0853 6.10941C18.8672 5.28823 18.2246 4.64149 17.4088 4.42201C15.9299 4.02319 10 4.02319 10 4.02319C10 4.02319 4.07019 4.02319 2.59133 4.42201C1.77546 4.64153 1.13289 5.28823 0.914805 6.10941C0.518555 7.59785 0.518555 10.7033 0.518555 10.7033C0.518555 10.7033 0.518555 13.8088 0.914805 15.2973C1.13289 16.1184 1.77546 16.7382 2.59133 16.9577C4.07019 17.3565 10 17.3565 10 17.3565C10 17.3565 15.9299 17.3565 17.4088 16.9577C18.2246 16.7382 18.8672 16.1184 19.0853 15.2973C19.4815 13.8088 19.4815 10.7033 19.4815 10.7033C19.4815 10.7033 19.4815 7.59785 19.0853 6.10941ZM8.06064 13.5229V7.88378L13.0169 10.7034L8.06064 13.5229Z" fill="#14B8A6" />
</svg>
